<?xml version="1.0" encoding="utf-8"?>
<!-- Generator: Adobe Illustrator 21.1.0, SVG Export Plug-In . SVG Version: 6.00 Build 0)  -->
<svg version="1.1" id="Layer_1" xmlns="http://www.w3.org/2000/svg" xmlns:xlink="http://www.w3.org/1999/xlink" x="0px" y="0px"
	 width="468px" height="318px" viewBox="0 0 468 318" style="enable-background:new 0 0 468 318;" xml:space="preserve">
<style type="text/css">
	.st0{fill:url(#SVGID_1_);}
	.st1{fill:#FFFFFF;}
</style>
<g>
	<g>
		<g>
			
				<linearGradient id="SVGID_1_" gradientUnits="userSpaceOnUse" x1="233.9" y1="334.2016" x2="233.9" y2="77.7991" gradientTransform="matrix(1 0 0 -1 0 320)">
				<stop  offset="0" style="stop-color:#FAB721"/>
				<stop  offset="8.025751e-02" style="stop-color:#FAB721"/>
				<stop  offset="1" style="stop-color:#F38620"/>
			</linearGradient>
			<path id="SVGID_2_" class="st0" d="M251.3,17.5v41.9c0,1.6,1.3,2.9,2.9,2.9h25.1c2.2,0,3.6,2.4,2.5,4.3L236.4,145
				c-1.1,1.9-3.8,1.9-4.9,0l-45.3-78.5c-1.1-1.9,0.3-4.3,2.5-4.3H214c1.6,0,2.9-1.3,2.9-2.9V17.4H105.6c-2.2,0-3.6,2.4-2.5,4.3
				L231.5,244c1.1,1.9,3.8,1.9,4.9,0L364.7,21.7c1.1-1.9-0.3-4.3-2.5-4.3L251.3,17.5L251.3,17.5z"/>
		</g>
	</g>
	<g>
		<path class="st1" d="M371,264.5c-15.4,0-25.1,10-25.1,22.4s9.4,22.4,25.1,22.4s25.1-10,25.1-22.4S386.6,264.5,371,264.5
			 M371,300.5c-9.5,0-14.9-6.1-14.9-13.6s5.6-13.6,14.9-13.6c9.5,0,14.9,6.1,14.9,13.6S380.4,300.5,371,300.5"/>
		<path class="st1" d="M63,266.2h-9.6l-14.2,24.6c-0.2,0.3-0.7,0.3-0.9,0l-14.2-24.6h-9.6c-0.4,0-0.7,0.4-0.5,0.8l24.3,42
			c0.2,0.3,0.7,0.3,0.9,0l24.3-42C63.7,266.7,63.5,266.2,63,266.2"/>
		<path class="st1" d="M165.9,284.1h-25.7c-0.3,0-0.5,0.2-0.5,0.5v7.9c0,0.3,0.2,0.5,0.5,0.5H157c0,0,0,0.4-0.3,1.2
			c-1.8,4.2-5.6,6.8-13.7,6.8c-9.4,0-14.8-6-14.8-13.4c0-7.7,5.6-13.6,14.8-13.7c5.7-0.1,8.6,1,13.3,3.4l0.2,0.1
			c0.2,0.1,0.5,0,0.7-0.2l3.7-6.3c0.2-0.2,0.1-0.6-0.2-0.7l-0.2-0.1c-6.4-4-11.5-4.9-17.4-4.9c-15.3,0-24.9,9.9-24.9,22.5
			c0,12.3,9.4,22.2,24.9,22.2c16,0,23.8-9.4,23.8-21.6l-0.1-3.5c0,0,0-0.1,0-0.2c0-0.3-0.2-0.5-0.5-0.5H165.9z"/>
		<path class="st1" d="M414.3,289.1v19.5h-8.4c-0.3,0-0.5-0.2-0.5-0.5v-41.9c0-0.8,0.6-0.8,1.2-0.1l23.1,26.7l0,0l23.1-26.7
			c0.6-0.8,1.2-0.8,1.2,0.1v41.9c0,0.3-0.2,0.5-0.5,0.5H445v-19.5l-14.9,17.3c-0.3,0.3-0.7,0.3-1,0L414.3,289.1z"/>
		<path class="st1" d="M290.6,304.2c0,2.8-2.3,5.1-5.1,5.1c-2.8,0-5.1-2.3-5.1-5.1s2.3-5.1,5.1-5.1
			C288.3,299.1,290.6,301.4,290.6,304.2"/>
		<path class="st1" d="M263.3,277.1c-1.7-0.9-6-3.2-13.9-3.4c-9-0.1-10.8,2.2-11.4,2.8c-0.4,0.5-0.7,1.5-0.5,2.3
			c0.6,2.8,8.9,3.4,12.7,3.6l1.6,0.1c9.6,0.5,19.1,1.4,19.3,12.9c0,4-2.4,7.9-6.7,10.5c-4.2,2.5-8.9,3.6-15.7,3.5
			c-6.6-0.1-12.6-1.7-19.5-5.3l-0.6-0.4c-0.2-0.1-0.3-0.5-0.2-0.7l4-6.8c0.1-0.2,0.5-0.3,0.7-0.2l0.4,0.2c3.1,1.6,5.4,2.4,7.7,3
			c4.4,1.2,8.9,1.9,15,0.7c0,0,5.1-1.1,5.8-4l0.1-0.3c0.1-2.3-1.4-3.6-10.7-4.4l-1.7-0.1c-9.3-0.6-19.7-1.3-21.2-10.9
			c-0.5-3.4,0.4-6.6,2.6-9.1c3.6-4.1,8.7-6.1,17.9-6.1c10.4,0,16.2,3.3,18.7,4.7l0.4,0.2c0.2,0.1,0.3,0.5,0.2,0.7l-3.8,6.6
			c-0.1,0.2-0.5,0.3-0.7,0.2L263.3,277.1z"/>
		<path class="st1" d="M335.1,297.2C335.1,297.3,335.1,297.3,335.1,297.2c-4.6,2.4-7.3,3.3-12.8,3.3c-9.4-0.1-14.8-6.2-14.8-13.6
			c0-7.5,5.6-13.6,14.8-13.6c5.5,0,8.2,0.9,12.8,3.3l0.4,0.2c0.2,0.1,0.5,0,0.7-0.2l3.8-6.6c0.1-0.2,0.1-0.6-0.2-0.7l-0.2-0.1
			c-6.3-3.6-13.1-4.7-17.2-4.7c-15.4,0-25.1,10-25.1,22.4c0,12.3,9.3,22.3,24.8,22.4l0,0c6.3,0,11.1-1.1,17.6-4.7l0.2-0.1
			c0.3-0.1,0.3-0.5,0.2-0.7l-3.8-6.5c-0.1-0.3-0.5-0.3-0.7-0.2L335.1,297.2z"/>
		<path class="st1" d="M109.6,308.1v-7.9c0-0.3-0.2-0.5-0.5-0.5H80.5v-8.8h22.8c0.3,0,0.5-0.2,0.5-0.5v-7.9c0-0.3-0.2-0.5-0.5-0.5
			H80.5v-6.8h28.6c0.3,0,0.5-0.2,0.5-0.5v-7.9c0-0.3-0.2-0.5-0.5-0.5H71.6v42.4h37.5C109.4,308.6,109.6,308.4,109.6,308.1"/>
		<path class="st1" d="M220.9,307.8L196.6,266c-0.2-0.4-0.7-0.4-0.9,0l-24.3,41.8c-0.2,0.4,0.1,0.8,0.5,0.8h9l3-5.1h24.8l3,5.1h8.9
			C220.8,308.6,221.1,308.2,220.9,307.8 M203.8,295.5h-15.5l7.7-13.2L203.8,295.5z"/>
	</g>
</g>
</svg>
